<?xml version="1.0" encoding="utf-8"?>
<!-- Generator: Adobe Illustrator 15.1.0, SVG Export Plug-In . SVG Version: 6.00 Build 0)  -->
<!DOCTYPE svg PUBLIC "-//W3C//DTD SVG 1.0//EN" "http://www.w3.org/TR/2001/REC-SVG-20010904/DTD/svg10.dtd">
<svg version="1.0" id="Capa_1" xmlns="http://www.w3.org/2000/svg" xmlns:xlink="http://www.w3.org/1999/xlink" x="0px" y="0px"
	 width="30px" height="30px" viewBox="0 0 30 30" enable-background="new 0 0 30 30" xml:space="preserve">
<g>
	<path class="hesturLogo" fill="#010002" d="M19.781,5.439c0,0,0.89-0.205,1.905-0.012c0,0-1.711-1.846-2.715-2.293l-0.466,1.198L19.781,5.439z"/>
	<path class="hesturLogo" fill="#010002" d="M28.565,14.174c-3.136-3.269-10.319-9.82-10.319-9.82L20.019,0l-5.857,3.251v0.01
		C-3.103,10.177,0.265,29.865,0.265,29.865s0.694-0.002,1.813-0.005c-1.585-7.569,0.946-13.833,0.946-13.833
		c-2.095,9.562-0.152,13.197,0.258,13.83c5.148-0.013,15.224-0.034,16.688-0.008c-0.665-4.169-4.285-9.179-4.339-9.242
		c-0.232-0.467-0.402-0.835-0.469-1.039c-0.641-1.954-0.043-3.394,0.872-5.022c3.045,4.685,8.167,1.839,8.167,1.839l1.32,1.549
		l1.124,0.296l1.311-1.396l0.892-0.596C28.499,15.047,28.637,14.893,28.565,14.174z"/>
</g>
</svg>
